<?xml version="1.0" encoding="utf-8"?>
<svg width="100"
     height="100"
     viewBox="-64 -64 64 64"
     xmlns="http://www.w3.org/2000/svg">
  <title>Elephant (black)</title>
  <g transform="translate(-32, -32)">
    <circle r="30" stroke-width="3.7" stroke="#000" fill="#DAC777"/>
	  <circle r="25" stroke-width="3" stroke="#000" fill="none"/>
    <path transform="scale(0.105)"
       stroke-linecap="round"
       stroke-linejoin="round"
       stroke-width="20"
       stroke="#000"
       fill="none"
       d="m 146.99555,-69.492766 h 25 C 148.66222,53.840567 103.33333,103.33333 60,40 28,53.333333 2,37.666667 -18,-7 -39.333333,44.333333 -80,50 -140,10 l 50,-110 c 13.333333,-20 35,-23.33333 65,-10 63.333333,-40 104.250278,4.91361 124.250278,118.2469396 L 117.25028,16.24694 Z M 28,48 c 8,18 12,38 12,60 h -178 c 0,-32 6,-58 18,-78 M 50,-60 c -6.666664,0 -6.387406,8.090694 0,10 6.207293,1.855467 -0.248054,-4.487741 -0.248054,-7.249165 C 49.751946,-60.010589 54.086759,-61.5904 50,-60"
    />
    <path
      fill="#000"
      stroke="#000"
      stroke-width="1.69"
      stroke-linecap="round"
      stroke-linejoin="round"
      d="M 4.5668075,-1.0262323 C 2.889765,1.1362039 3.6495598,1.2406497 3.5140436,2.1012155 c 0,0 3.054566,0.4296689 5.8468039,0.3579539 2.7922385,-0.071717 8.8960305,-1.0862631 8.8960305,-1.0862631 0,0 -6.067321,-0.041267 -8.9697244,-0.69008224 C 6.0942542,-0.03092975 4.5668075,-1.0262323 4.5668075,-1.0262323 Z"
    />
  </g>
</svg>