<?xml version="1.0" encoding="utf-8"?>
<svg width="100"
     height="100"
     viewBox="-64 -64 64 64"
     xmlns="http://www.w3.org/2000/svg">
  <title></title>
  <g transform="translate(-32, -32)">
    <circle r="30" stroke-width="3.7" stroke="#000" fill="#DAC777"/>
	  <circle r="25" stroke-width="3" stroke="#000" fill="none"/>
    <path
      transform="scale(0.108) translate(2,-8)"
      stroke-linecap="round"
      stroke-linejoin="round"
      stroke-width="18"
      stroke="#000"
      fill="none" 
      d="m -24.656007,-39.451633 c 16.0000004,2 32.0000004,2 48,0 L 24,-90 l 32,5 c 1.333333,-16 1.333333,-32.66667 0,-50 l -32,5 1,-33 c -16.6666667,-2 -33.3333333,-2 -50,0 l 1,33 -32,-5 c -1.333333,17.33333 -1.333333,34 0,50 l 32,-5 z M 23,95.074766 V -42 c 69.127921,-37.564208 128.18409,-14.321459 132.12013,54.264292 2.69169,46.902956 -37.46412,91.114338 -62.464123,141.114338 h -184 C -116.34399,103.37863 -154.98557,59.927995 -152.66667,13 -149.38664,-53.378625 -91.471915,-80.299916 -23,-40.528583 V 95.074766 m 133,14.962614 c -72.503485,-16.752087 -145.748098,-18.543057 -220,0"
    />
  </g>
</svg>